<svg xmlns="http://www.w3.org/2000/svg" width="509.06" height="387.773" viewBox="0 0 509.06 387.773">
  <g id="Group_58" data-name="Group 58" transform="translate(-1038.756 114.919)">
    <g id="Group_1" data-name="Group 1" transform="translate(319.286 -139.99)">
      <path id="Path_1" data-name="Path 1" d="M1228.129,201.654c-2.55-23.679-17.709-51.494-41.59-76.312-22.181-23.051-48.562-40.359-70.569-46.3-64.982-17.537-91.881,11.91-133.834,65.467-3.294,4.2-6.507,8.391-9.614,12.44-18.617,24.258-34.693,45.207-57.514,57.24-25.014,13.189-55.759,13.848-96.753,2.071-25.418-7.3-46.552-4.837-62.809,7.329-34.618,25.9-35.552,87.8-35.564,88.967-2.324,45.063,5.187,75.327,22.325,89.953,8.091,6.906,18.222,10.334,30.692,10.333a89.579,89.579,0,0,0,18.545-2.133c9.659-2.053,19.357-10.564,29.625-19.574,20.535-18.024,43.81-38.453,76.66-18.685,19.214,11.561,39.366,14.328,58.269,8.005,23.205-7.76,43.735-28.937,54.918-56.648,3.736-9.256,8.113-16.1,13.114-21.174q1.87-.742,3.784-1.476,2.393-.873,4.858-1.729,4.173-1.377,8.545-2.7,3.385-.949,6.9-1.874,3.287-.791,6.706-1.564,3.121-.638,6.357-1.269,3.045-.525,6.2-1.054l2.336-.336,3.655-.525q2.87-.344,5.841-.707,2.756-.27,5.6-.566,2.734-.216,5.552-.465,2.643-.165,5.36-.368,2.6-.125,5.279-.292c25.087-.885,54.678-4.736,89.234-22.647C1217.947,250.7,1231.051,228.774,1228.129,201.654Zm-125.406,57.558c4.04-9.014.755-20.756-8.371-29.914-4.815-4.832-13.36-11.019-26.73-13.049-12.451-1.893-25.9.316-39.977,6.561-23.232,10.311-36.53,19.659-47.441,28.225q-1.341,1.053-2.63,2.073c-15.211,12.013-26.2,20.692-58.681,23.215a232.829,232.829,0,0,0-23.9,3.57c-5.7,1.049-11.534,2.119-17.783,3.022l-.8.047c2.858-.74,5.657-1.519,8.42-2.29,10.057-2.808,19.555-5.461,30.228-5.727,34.62-.865,46.29-10.754,62.44-24.441q1.651-1.4,3.367-2.843c12.89-10.818,26.415-19.978,50.52-29.517,20.25-8.013,48.455-9.774,66.881,9.324,9.01,9.339,12.319,21.118,8.427,30.008-2.351,5.368-7.043,9.222-13.657,11.4A19.9,19.9,0,0,0,1102.723,259.212Zm-14.126,10.4a18.669,18.669,0,0,0,9.248-9.027c3.981-8.677.7-20.277-8.154-28.867-5.741-5.565-27.421-22.258-65.45-3.372a287.87,287.87,0,0,0-44.972,27.406c-20,14.427-30.811,22.219-92.252,26.53,2.762-.483,5.473-.978,8.151-1.471a232.727,232.727,0,0,1,23.8-3.558c32.764-2.544,43.847-11.3,59.187-23.412q1.291-1.02,2.628-2.071c12.555-9.857,25.393-18.409,47.244-28.106,19.909-8.835,47.614-11.823,65.665,6.293,8.849,8.882,12.06,20.215,8.18,28.872C1099.551,264.006,1094.988,267.646,1088.6,269.613Zm18.958-11.763c4.044-9.238.664-21.418-8.61-31.031a50.726,50.726,0,0,0-27.324-14.357c-12.674-2.443-26.329-.825-40.573,4.812-24.223,9.586-37.818,18.794-50.778,29.671q-1.724,1.444-3.37,2.846c-16.005,13.563-27.569,23.362-61.859,24.219-10.79.27-20.342,2.937-30.456,5.762-4.308,1.2-8.7,2.422-13.279,3.478l-.664.036c-.607.032-1.2.071-1.8.107,2.619-.919,5.194-1.894,7.735-2.859,10.5-3.987,21.367-8.128,34.593-7.9q1.339.021,2.636.021c34.659,0,47.374-11.394,63.369-25.726q1.854-1.66,3.785-3.378c13.506-11.958,27.824-21.794,53.8-30.931,31.348-11.025,55.7-.876,68.038,12.3,9.189,9.814,12.6,22.063,8.693,31.207-2.459,5.753-7.529,9.926-14.73,12.292A20.979,20.979,0,0,0,1107.555,257.85Zm4.795-1.353c4.055-9.485.573-22.129-8.869-32.215a54.881,54.881,0,0,0-27.921-15.668c-12.893-2.985-26.724-1.934-41.11,3.125-26.121,9.187-40.524,19.083-54.111,31.113-1.293,1.145-2.552,2.273-3.79,3.382-16.241,14.553-29.047,26.074-65.366,25.466-13.4-.217-24.359,3.941-34.94,7.96-3.6,1.368-7.266,2.758-11.034,3.973q-1.761.127-3.481.276c2.377-1.066,4.753-2.215,7.178-3.392,11.116-5.393,22.607-10.963,38.37-10.194,38.784,1.916,52.423-10.878,69.689-27.071q2-1.873,4.078-3.806c14.657-13.566,29.321-23.709,57.086-32.348,31.77-9.885,56.554,1.382,69.152,15.223,9.527,10.466,12.965,22.907,8.972,32.469-2.561,6.132-8.013,10.609-15.782,13.175C1106.126,265.4,1110.195,261.539,1112.35,256.5Zm4.765-1.347c4.135-9.9.631-22.721-9.143-33.459-12.793-14.053-37.932-25.5-70.12-15.486-27.935,8.692-42.69,18.9-57.445,32.554q-2.088,1.934-4.082,3.811c-17.1,16.042-30.609,28.713-69,26.82-15.989-.792-27.6,4.841-38.824,10.286-3.3,1.6-6.516,3.157-9.754,4.508l-.39.038c2.187-1.233,4.38-2.587,6.611-3.967,10.244-6.335,21.851-13.507,38.422-12.243,40.948,3.152,55.279-10.812,73.424-28.488q2.113-2.06,4.317-4.185c15.9-15.275,30.878-25.7,60.371-33.765,32.162-8.795,57.367,3.582,70.234,18.1,9.733,10.982,13.283,23.927,9.261,33.784-2.672,6.55-8.531,11.379-16.937,14.155C1110.352,264.848,1114.826,260.633,1117.115,255.15Zm4.744-1.341c4.157-10.189.544-23.507-9.428-34.757-13.053-14.727-38.612-27.29-71.179-18.38-29.686,8.121-44.763,18.613-60.774,33.993q-2.21,2.124-4.32,4.19c-17.977,17.51-32.172,31.342-72.7,28.225-16.873-1.306-28.619,5.968-38.984,12.38-2.892,1.788-5.72,3.533-8.548,5.017q-2.348.26-4.61.557c2.1-1.394,4.249-2.962,6.488-4.6,10.663-7.8,22.735-16.636,41.7-14.734,43.134,4.334,58.155-10.787,77.177-29.927q2.222-2.235,4.535-4.539c16.82-16.681,32.628-27.785,63.659-35.184,32.518-7.754,58.151,5.728,71.292,20.933,9.949,11.511,13.611,24.978,9.557,35.146-2.165,5.429-7.24,11.927-18.966,15.494C1114.143,264.664,1119.344,259.975,1121.859,253.809Zm4.728-1.333c4.184-10.494.46-24.328-9.718-36.1-13.322-15.414-39.291-29.084-72.217-21.232-31.244,7.451-47.163,18.633-64.1,35.43q-2.32,2.3-4.538,4.544c-9.617,9.677-17.923,18.034-29.312,23.594-12.507,6.107-27.479,8.033-47.109,6.062-19.3-1.947-31.542,7.012-42.34,14.909-2.84,2.077-5.524,4.035-8.161,5.665q-2.529.365-4.943.778c2.136-1.608,4.313-3.45,6.6-5.387,10.465-8.879,23.493-19.927,44.869-17.347,45.316,5.471,61.041-10.789,80.937-31.378q2.325-2.4,4.741-4.881c18.2-18.557,34.266-29.887,66.95-36.6,32.869-6.755,58.92,7.832,72.339,23.737,10.322,12.233,14.006,25.9,9.853,36.545-2.965,7.606-9.634,13.143-19.518,16.334C1120.261,263.315,1124.6,257.461,1126.587,252.476ZM850.563,286.1c-.411.063-.817.128-1.222.192l.05-.03C849.783,286.2,850.172,286.15,850.563,286.1Zm-3.687.539-.178.094c-1.581.275-3.117.561-4.592.859.094-.064.187-.123.281-.188Q844.632,286.988,846.876,286.635ZM1131.3,251.146c4.279-10.974.537-24.989-10.009-37.488-13.593-16.11-39.97-30.889-73.242-24.05-32.92,6.766-49.1,18.177-67.429,36.867q-2.427,2.475-4.746,4.886c-19.716,20.4-35.287,36.518-80.154,31.1-21.779-2.628-34.982,8.566-45.584,17.562-2.826,2.4-5.486,4.651-8.093,6.472q-2.687.5-5.212,1.062c2.238-1.856,4.519-4.065,6.928-6.4,10.732-10.417,24.089-23.379,47.964-20.076,47.525,6.585,63.932-10.811,84.7-32.83,1.618-1.716,3.262-3.459,4.95-5.222,19.65-20.522,35.909-32.039,70.239-38.027,33.249-5.8,60.309,10.661,73.384,26.518,10.544,12.789,14.337,26.985,10.144,37.974-3.109,8.149-10.326,14.1-21.071,17.524C1124.51,262.895,1129.215,256.5,1131.3,251.146ZM796.368,321.708c.407-.637.845-1.29,1.3-1.953,0,.018,0,.035-.007.053Q796.97,320.777,796.368,321.708Zm.2,4.316a15.136,15.136,0,0,0,1.939,7.527c4.084,7.808,16.552,12.7,34.566,13.928-18.807-.76-29.808-4.317-34.1-10.9C796.5,332.794,795.762,329.537,796.566,326.024Zm-6.385,9.954c.171,4.9,2.946,8.221,7.061,11.7,6.755,5.71,19.9,4.92,36.547,3.916,2.274-.137,4.655-.279,7.1-.41-4.145.32-8.126.712-11.879,1.086-14.139,1.41-25.3,2.523-31.547-1.836-3.954-2.76-7.869-5.9-8.494-11.2-.685-5.8,2.622-13.8,10.254-24.593a21.16,21.16,0,0,0-.979,2.621C792.585,324.994,790.009,331.069,790.181,335.978Zm43.552,14.681c-16.438.991-29.418,1.772-35.888-3.7-3.924-3.316-6.571-6.459-6.73-11.017-.122-3.49,1.309-7.721,4.37-12.812a21.161,21.161,0,0,0-3.325,9.477c-.259,5.035,2.581,8.659,5.393,11.54,6.93,7.1,22.247,6.816,41.7,6.185C837.36,350.44,835.515,350.551,833.733,350.659ZM798.221,343.5c-2.8-2.873-5.367-6.175-5.128-10.838a15.791,15.791,0,0,1,1.213-5.032,14.293,14.293,0,0,0-.323,1.585c-.7,4.946,1.709,8.7,3.884,11.408,6.147,7.67,21.074,8.967,39.585,8.839C819.069,350.036,804.666,350.1,798.221,343.5Zm.375-3.461c-3.1-3.864-4.2-7.062-3.687-10.693a13.422,13.422,0,0,1,.506-2.164c-.392,3.25.5,6.435,2.769,9.908,5.529,8.477,20.7,11.026,36.862,11.448C817.908,348.533,804.24,347.076,798.6,340.035Zm.738-6.917a13.76,13.76,0,0,1-1.779-8,18.9,18.9,0,0,0,1.276,4.9c4.129,10.069,19.038,15.2,35.039,16.588C815.8,345.495,803.329,340.755,799.334,333.118Zm.363-3.457a17.865,17.865,0,0,1-1.322-7.676,17.979,17.979,0,0,0,.787,4.5c2.909,9.365,15.223,16.421,30.927,18.848C814.557,343.367,802.99,337.69,799.7,329.661Zm-.4-7.893c.06.393.109.786.2,1.178,2.116,9.515,13.108,17.321,27.014,20.709-13.49-2.882-23.928-9.317-26.455-17.452A17.012,17.012,0,0,1,799.3,321.768Zm1.109.976a16.307,16.307,0,0,1-.3-1.9c2.409,10.29,14.532,19.082,28.87,22.412C814.359,340.293,802.565,332.442,800.409,322.744Zm.351-3.462c0-.024,0-.048-.007-.072a23.51,23.51,0,0,0,3.855,7.841c4.552,6.223,11.844,11.149,19.967,14.036C812.039,337.011,802.113,328.706,800.76,319.282Zm.335-4.173a182.066,182.066,0,0,1,12.243-13.85c1.437-.9,3.011-1.8,4.735-2.687A166.194,166.194,0,0,0,801.106,315.4C801.1,315.3,801.1,315.206,801.095,315.109Zm18.062-21.03c-.356.35-.715.7-1.065,1.046a54.6,54.6,0,0,0-5.982,3.3q.564-.652,1.141-1.314A52.538,52.538,0,0,1,819.157,294.079Zm-4.121,1.006.181-.2c.1-.008.2-.03.3-.042C815.353,294.92,815.192,295,815.036,295.085Zm8.65-1.353-.3.256q-2.746,1.1-5.085,2.249l.362-.361Q820.969,294.783,823.686,293.732Zm-3.11.266.187-.183c.12-.009.238-.033.358-.046C820.939,293.845,820.754,293.922,820.576,294Zm-4.593,3.227-.432.435a49.262,49.262,0,0,0-6.19,3.994l.318-.377A44.853,44.853,0,0,1,815.983,297.225Zm-6.968,3.39a29.852,29.852,0,0,0-5.056,4.921,25.813,25.813,0,0,1,6.421-6.528Q809.687,299.82,809.015,300.615Zm.547,3.248q-4.859,5.2-8.444,9.666c0-.042.01-.084.013-.126a21.826,21.826,0,0,1,1.063-1.956c.249-.4.525-.819.82-1.238A35.254,35.254,0,0,1,809.562,303.863Zm11.73-6.852q1.847-.846,3.9-1.672c-6.015,4.426-11.1,8.466-15.3,12.18-.1.077-.209.156-.311.234Q814.624,302.77,821.292,297.011Zm7.248-2.956q1.508-.546,3.119-1.08-6.591,4.023-11.91,7.65Q823.8,297.478,828.54,294.055Zm-2.262-1.278c.035-.012.073-.024.108-.037.141-.01.281-.033.422-.049-.259.091-.505.185-.758.278Zm-.07-.963c.377-.241.755-.5,1.133-.778,1.687-.529,3.413-1.018,5.166-1.472q-.521.322-1.041.6-2.76.795-5.207,1.642Zm9.235-.032c.683-.2,1.372-.407,2.081-.607q-3.756,1.88-7.147,3.687Q832.816,293.35,835.443,291.782Zm-.885-2.465c.183-.13.365-.259.548-.4q2.4-.565,4.83-1.051c-.152.091-.3.183-.455.271Q836.911,288.708,834.558,289.317Zm301.455-39.494c4.313-11.307.465-25.85-10.3-38.9-13.234-16.051-40.624-32.711-74.266-26.844-34.586,6.033-50.962,17.632-70.753,38.3q-2.535,2.646-4.954,5.226c-20.58,21.824-36.826,39.06-83.889,32.546-24.321-3.371-37.865,9.773-48.744,20.331a95.449,95.449,0,0,1-8.407,7.57q-2.833.68-5.455,1.442a101.6,101.6,0,0,0,7.6-7.808c10.37-11.391,24.57-26.994,50.995-22.921a138.564,138.564,0,0,0,21.081,1.758c34.107,0,49.125-16.269,67.372-36.04q2.527-2.74,5.159-5.562c20.712-22.1,37.772-34.268,73.53-39.449a81.066,81.066,0,0,1,57.82,13.972c15.427,10.672,26,25.469,28.287,39.583,2.651,16.371-6.155,28.487-24.358,34.077C1128.625,262.685,1133.8,255.625,1136.013,249.823Zm.409,6.169c5.09-6.274,7.023-14.267,5.591-23.114-2.326-14.36-13.046-29.389-28.679-40.2a81.976,81.976,0,0,0-58.484-14.128c-36.034,5.221-53.218,17.478-74.079,39.735q-2.643,2.82-5.165,5.567c-21.441,23.233-38.378,41.587-87.622,33.992-26.916-4.15-41.316,11.667-51.829,23.216-3.4,3.731-6.38,7-9.277,9.159q-3.283,1.047-6.183,2.234c2.932-2.272,5.9-5.924,9.295-10.118,10.523-12.982,24.939-30.766,53.968-25.878,51.948,8.734,69.714-10.888,92.2-35.731,1.756-1.94,3.541-3.912,5.374-5.905,22.269-24.218,39.445-36.512,76.822-40.873,42.571-4.962,82.649,27.28,87.446,57.293,2.75,17.206-6.76,30.05-26.261,35.933C1126.84,264.57,1132.5,260.83,1136.422,255.992Zm10.3-24.9c-2.366-14.807-13.353-30.52-29.387-42.032-17.72-12.724-38.707-18.421-59.09-16.043-37.671,4.4-54.974,16.778-77.4,41.169q-2.751,2.992-5.378,5.91c-22.3,24.632-39.907,44.086-91.353,35.437-29.578-4.968-44.181,13.051-54.849,26.211-5.422,6.688-9.7,11.972-14.295,12.217l-.2.01-.13.146c-.718.809-1.417,1.605-2.106,2.394-5.169,3.161-8.806,6.824-10.763,10.95a16.964,16.964,0,0,0-1.292,3.874c-9.2,12.418-13.208,21.509-12.44,28.01.671,5.683,4.759,8.973,8.888,11.855,3.509,2.45,8.4,3.256,14.408,3.256,5.162,0,11.142-.6,17.766-1.256,4.315-.43,8.923-.89,13.749-1.227-6.052.558-11.771,1.382-17.1,2.159-12.6,1.838-22.556,3.291-28.672-.225-4.854-2.79-9.3-5.758-10.412-11.352-1.807-9.109,5.5-23.923,22.994-46.609,4.474-.4,8.474-5.913,13.517-12.857,10.628-14.635,25.181-34.679,56.89-28.946,54.162,9.787,72.6-10.936,95.944-37.174,1.828-2.054,3.685-4.143,5.593-6.253,23.405-25.891,41.363-38.824,80.115-42.3,43.223-3.877,83.927,30.217,88.788,61.027,2.875,18.225-7.571,31.9-28.771,38.007C1140.437,261.173,1149.467,248.243,1146.724,231.091Zm4.716-1.791c-4.923-31.2-46.07-65.732-89.8-61.813-39.062,3.5-57.153,16.526-80.725,42.6q-2.863,3.169-5.6,6.259c-23.147,26.02-41.431,46.574-95.079,36.875-32.278-5.832-47.646,15.319-57.813,29.317-4.978,6.855-8.911,12.269-13.027,12.49l-.214.01-.131.17c-17.763,23.009-25.167,38.112-23.3,47.528,1.186,5.979,5.815,9.08,10.864,11.981,2.883,1.659,6.52,2.269,10.815,2.269,5.231,0,11.439-.9,18.457-1.93,5.528-.806,11.487-1.665,17.8-2.22-7.236.8-13.981,2.12-20.236,3.346-11.556,2.265-20.683,4.054-26.746,1.2-5.848-2.751-10.823-5.512-12.464-11.467-2.586-9.38,3.73-24.923,19.877-48.909,4.048-.42,7.7-6.013,12.308-13.057,10.083-15.426,25.324-38.742,59.763-32.123a143.3,143.3,0,0,0,26.943,2.832c36.441,0,52.881-18.767,72.739-41.444q2.852-3.255,5.818-6.606c25.069-28.163,43.06-41.159,83.408-43.722,20.334-1.292,41.514,5.667,59.663,19.59,16.67,12.79,28.062,29.677,30.472,45.172,3.045,19.569-8.1,33.769-31.394,40.14C1144.309,261.3,1154.313,247.515,1151.44,229.3Zm4.72-1.792c-4.977-31.995-46.728-68.361-91.117-65.551-40.428,2.568-59.313,16.245-84.048,44.033-1.987,2.232-3.921,4.441-5.823,6.613-23.994,27.4-42.945,49.035-98.8,38.308-35.07-6.735-50.5,16.9-60.722,32.53-4.549,6.96-8.142,12.458-11.813,12.654l-.233.012-.13.193c-16.4,24.334-22.8,40.18-20.129,49.867,1.745,6.33,7.13,9.319,12.968,12.065a19.352,19.352,0,0,0,8.3,1.558c5.3,0,11.677-1.25,19.021-2.69a221.8,221.8,0,0,1,22.583-3.583,189.552,189.552,0,0,0-24.411,4.847c-10.84,2.69-19.4,4.815-25.473,2.5-6.684-2.542-12.4-5.165-14.629-11.529-3.348-9.557,2.169-26.326,16.868-51.265,3.64-.427,6.8-5.79,11.148-13.147,10.094-17.1,25.346-42.947,62.591-35.408,58.608,11.861,78.378-11.045,103.414-40.044q2.963-3.432,6.047-6.965c26.273-29.932,45.027-43.554,86.7-45.148,20.114-.768,42.086,7.035,60.277,21.413,17.1,13.513,28.764,31.115,31.212,47.086,1.815,11.845-.1,33.067-33.358,42.125l-1.174.323C1148.01,261.666,1159.183,246.933,1156.16,227.508ZM845.631,342.642c-14.755,2.005-32.066-4.93-40.268-16.143a21.619,21.619,0,0,1-4.034-9.054c.729-.863,1.513-1.745,2.367-2.652a100.087,100.087,0,0,1,13.542-11.249,246.156,246.156,0,0,1,24.877-13.586c.706-.177,1.428-.351,2.158-.524a27.125,27.125,0,0,0,5.416-1.224c1.417-.272,2.858-.539,4.355-.794,1.466-.25,2.9-.562,4.333-.9.407-.055.8-.112,1.216-.166,2.64-.341,5.193-.782,7.69-1.279q5.221-.525,10.036-1.227c70.392-4.182,81.333-12.069,102.5-27.334a287.073,287.073,0,0,1,44.841-27.326c37.476-18.613,58.752-2.253,64.383,3.205,8.574,8.314,11.77,19.488,7.955,27.805-2.371,5.166-7.036,8.661-13.556,10.357q-.741.049-1.478.109c-.15,0-.293.013-.444.014-1.981.021-3.931.111-5.855.256-.133,0-.268-.005-.4-.005-1.853,0-3.678.071-5.48.2q-2.966-.05-5.843.146c-28.71-.734-50.753,18.614-70.3,35.788-8.558,7.518-16.615,14.591-24.638,19.673a81.157,81.157,0,0,1-8.926,2.6c-1.684.351-3.369.647-5.057.842-.889.1-1.775.218-2.658.343l-.077,0c-1.615.068-3.211.182-4.793.325q-2.407-.018-4.756.076c-1.633-.088-3.237-.124-4.822-.128-1.569-.151-3.116-.267-4.636-.335q-2.5-.346-4.913-.545-2.37-.412-4.65-.678c-21.493-4.505-36.858.913-51.786,6.182C863.662,338.334,855.114,341.351,845.631,342.642ZM996.51,307.655c17.413-14.527,36.748-30.648,60.8-34.658-23.233,5.371-42.114,20.309-59.194,33.833-3.816,3.022-7.532,5.964-11.183,8.718C990.071,313.026,993.255,310.371,996.51,307.655Zm-13.746,9.994c3.809-3.142,7.63-6.5,11.494-9.891,16.744-14.712,35.329-31.027,58.319-34.779-22.155,5.185-40.27,20.279-56.666,33.958C991.412,310.691,987.05,314.328,982.764,317.649ZM998.7,307.563c18.128-14.355,38.3-30.311,63.505-34.588-24.426,5.582-44.149,20.383-61.966,33.768-3.135,2.354-6.2,4.659-9.22,6.859C993.54,311.647,996.1,309.624,998.7,307.563Zm2.1-.073c18.852-14.162,39.846-29.922,66.254-34.54-25.669,5.861-46.246,20.513-64.815,33.739q-3.488,2.482-6.869,4.867Q998.053,309.558,1000.8,307.49Zm1.981-.04c19.652-14,41.567-29.59,69.351-34.57-27.11,6.18-48.656,20.708-68.067,33.808q-2.019,1.362-4,2.694Zm74.792-34.738c-28.87,6.549-51.546,21.031-71.94,34.061l-.468.3C1025.589,293.291,1048.407,278.026,1077.571,272.712Zm5.22-.128c-28.868,6.635-51.651,19.744-72.046,32.037C1031.068,291.7,1053.869,278.065,1082.791,272.584Zm5.724-.261c-28.666,6.652-51.439,18.342-71.711,29.76C1037.026,290.078,1059.811,277.926,1088.515,272.323ZM943.754,334.3c.484.058.966.1,1.448.136l-.045.016c-.521-.019-1.044-.056-1.569-.1Zm-.916-1.076.074-.017c.275.048.547.082.821.123l-.045.014Q943.264,333.286,942.838,333.22Zm-2.281.529c.351.078.7.146,1.05.211l-.3.094c-.373-.062-.749-.138-1.124-.214Zm-.38-1.046.17-.027.35.076c-.054.013-.107.027-.161.039C940.417,332.764,940.3,332.732,940.177,332.7Zm-1.565.559-.416.107c-.243-.066-.486-.132-.73-.2l.47-.085c.129.037.256.069.386.107C938.419,333.215,938.515,333.235,938.612,333.262Zm-2.746-.755-.276.056-.329-.111.267-.029C935.641,332.452,935.752,332.477,935.866,332.507ZM872.239,336.3c12.28-4.334,24.86-8.764,40.932-7.608-13.456.206-24.738,3.825-35.777,7.373-5.965,1.916-12.132,3.9-18.478,5.264-3.221.693-7.5,1.558-12.069,2.105-.173.021-.348.027-.522.046C855.673,342.133,864.1,339.172,872.239,336.3Zm-13.126,5.944c6.391-1.375,12.581-3.365,18.567-5.289,12.244-3.936,24.788-7.963,40.285-7.252-12.813.519-23.864,3.823-34.676,7.061-7.7,2.308-14.979,4.486-22.85,5.724l-1.145.181c-3.628.574-7.379,1.166-11.232,1.556l-.107.009C852.181,343.679,856.108,342.888,859.113,342.242Zm.327,1.349,1.146-.181a175.2,175.2,0,0,0,22.971-5.752c12.107-3.625,24.515-7.339,39.367-7.077-12.112.828-22.84,3.887-33.327,6.893-9.3,2.668-18.087,5.187-27.635,6.174-1.6.164-3.2.35-4.823.538-2.328.269-4.733.54-7.159.759C853.216,344.566,856.374,344.075,859.44,343.591Zm-2.194,1.523c1.615-.186,3.217-.371,4.813-.537,9.629-.995,18.454-3.525,27.8-6.2,11.743-3.367,23.785-6.8,37.735-7.056-11.191,1.157-21.36,4.019-31.3,6.831-11.022,3.118-21.433,6.061-32.8,6.662-2.507.132-5.077.35-7.563.561-1.232.105-2.482.2-3.73.3C853.9,345.493,855.595,345.306,857.246,345.114ZM856,346.3c2.592-.22,5.041-.428,7.533-.56,11.474-.605,21.933-3.563,33.007-6.7,10.8-3.053,21.859-6.169,34.194-7.069l.3.093c-9.726,1.486-18.813,4.1-27.711,6.651-12.851,3.692-24.99,7.179-38.32,7.251-3.283.017-6.5.213-9.9.42l-.978.058C854.751,346.4,855.382,346.355,856,346.3Zm9.009.6c13.459-.071,25.658-3.576,38.573-7.287,9.458-2.716,19.13-5.489,29.544-6.9.209.068.423.143.633.213-7.967,1.666-15.6,3.953-23.091,6.2-14.769,4.429-28.716,8.624-44.145,8.006-3.192-.125-6.438-.038-9.625.086C859.653,347.06,862.315,346.923,865.009,346.908Zm1.478,1.165c15.578.613,29.6-3.592,44.449-8.047,7.961-2.387,16.089-4.82,24.6-6.5.307.108.613.194.919.292-6.192,1.641-12.236,3.576-18.178,5.48-16.756,5.369-32.585,10.441-50.231,9-2.3-.188-4.63-.25-6.952-.25-.468,0-.934.011-1.4.015C861.967,348.006,864.217,347.984,866.487,348.073Zm1.478,1.161c2.1.171,4.162.251,6.209.251,15.376,0,29.517-4.531,44.384-9.293,6.413-2.055,12.947-4.146,19.651-5.86.415.108.831.222,1.244.312-4.512,1.438-8.971,2.984-13.362,4.514-17.96,6.261-36.535,12.737-56.532,10.311-1.912-.232-3.808-.364-5.7-.44C865.224,349.065,866.59,349.122,867.965,349.234Zm1.243,1.137c.079.009.158.016.237.026a73.764,73.764,0,0,0,8.875.528c16.855,0,32.691-5.519,48.079-10.884,4.925-1.717,9.933-3.458,15.006-5.036.559.086,1.116.151,1.672.2-3.023,1.121-6.026,2.273-8.993,3.414-19.918,7.66-40.513,15.586-63.011,12.011C870.45,350.536,869.829,350.45,869.208,350.371Zm3.007,1.365a73.311,73.311,0,0,0,10.2.719c18.314,0,35.4-6.57,52.007-12.958,3.62-1.392,7.294-2.8,10.991-4.147.735.016,1.466,0,2.2-.034q-2.664,1.129-5.385,2.3c-21.876,9.377-44.5,19.074-69.634,14.186C872.464,351.778,872.34,351.76,872.215,351.736Zm70.375-13.261c2.77-1.187,5.472-2.336,8.153-3.455,1.046-.152,2.087-.363,3.124-.61-1.116.535-2.236,1.073-3.376,1.622-23.49,11.31-47.775,22.986-75.273,17.171C899.515,356.933,921.4,347.558,942.59,338.475Zm8.307-1.6c5.343-2.573,10.39-5,15.447-7.21.237-.1.477-.213.715-.318-2.662,1.413-5.343,2.871-8.154,4.4-23.975,13.054-51.081,27.8-81.3,20.863C904.438,359.225,929.063,347.386,950.9,336.874Zm8.455-2.3c3.389-1.846,6.592-3.589,9.792-5.27l1.86-.976,1.029-.54c-.193.119-.389.235-.582.354q-1.944,1.2-3.935,2.437c-24.244,15.041-54.252,33.654-87.512,25.495C909.507,361.687,935.918,347.329,959.352,334.569ZM896.539,359c26.923,0,51.2-15.06,71.47-27.635q1.991-1.234,3.934-2.436,2.363-1.457,4.765-2.878c-.841.578-1.68,1.157-2.512,1.75-22.062,15.724-55.02,39.206-91.659,29.789A70.138,70.138,0,0,0,896.539,359Zm3.155,1.7c29.957,0,56.377-18.828,75.045-32.133q3.153-2.247,6.4-4.36c-1.412,1.059-2.813,2.142-4.2,3.267-25.961,21.1-57,41.051-91.813,31.682A69.651,69.651,0,0,0,899.694,360.7Zm77.839-32.5q3.836-3.117,7.824-5.9c-1.922,1.536-3.812,3.14-5.665,4.839-33.334,30.574-63.565,41.6-92.2,33.575C921.641,368.549,952.031,348.925,977.533,328.2Zm2.791-.369a107.823,107.823,0,0,1,8.8-7.255c-2.282,1.935-4.51,4-6.685,6.235-21.908,22.49-55.174,46.085-92.213,35.575C918.3,368.956,947.879,357.588,980.324,327.829Zm2.789-.368a94.126,94.126,0,0,1,9.711-8.678,87.393,87.393,0,0,0-7.627,7.694c-9.357,10.677-24.481,25.162-43.389,33.537-16.591,7.347-33.055,8.667-49.058,4C929.1,372.748,961.565,349.581,983.113,327.461Zm-40.926,33.408c19.063-8.444,34.294-23.027,43.713-33.776a84.624,84.624,0,0,1,10.634-10.217,81.022,81.022,0,0,0-8.581,9.269c-8.948,11.283-23.745,26.606-43.424,35.532-16.559,7.508-33.082,8.826-49.248,4C910.618,369.482,926.347,367.884,942.187,360.869Zm-44.755,6.389c15.612,4.07,31.533,2.5,47.483-4.73,19.85-9,34.759-24.438,43.77-35.8a78.258,78.258,0,0,1,11.306-11.64,76.91,76.91,0,0,0-9.28,10.725C970.066,354.442,935.462,378.949,897.432,367.258Zm94.037-40.9a73.438,73.438,0,0,1,11.984-13.111,73.437,73.437,0,0,0-9.983,12.23c-19.042,28.928-54.14,55.879-93.689,43.422C937.236,378.862,971.1,354.61,991.469,326.358Zm2.782-.366a70.083,70.083,0,0,1,12.461-14.482,71.272,71.272,0,0,0-10.481,13.633c-11.235,18.632-26.713,33.385-43.582,41.542-16.362,7.913-33.5,9.229-50.18,3.973C941.283,381.067,975.494,354.487,994.251,325.992Zm-41.195,41.535c17.03-8.235,32.648-23.116,43.975-41.9a67.343,67.343,0,0,1,12.987-15.915,69.369,69.369,0,0,0-11.026,15.1c-10.676,19.268-26.585,35.143-43.647,43.554-16.5,8.133-33.84,9.413-50.8,3.884C920.706,376.74,937.235,375.176,953.056,367.527Zm2.7,1.674c17.23-8.494,33.286-24.509,44.052-43.94a65.4,65.4,0,0,1,13.344-17.246,68.163,68.163,0,0,0-11.4,16.456c-12.584,24.658-33.1,43.379-54.885,50.079a64.1,64.1,0,0,1-40.368-.72C922.98,378.619,939.76,377.089,955.758,369.2Zm-8.613,6.242c22.02-6.772,42.746-25.668,55.443-50.546a63.884,63.884,0,0,1,13.7-18.608,67.26,67.26,0,0,0-11.771,17.846c-12.07,25.619-32.533,45.108-54.741,52.132a63.571,63.571,0,0,1-41.13-.774A64.733,64.733,0,0,0,947.145,375.443Zm2.915,1.715c22.452-7.1,43.126-26.774,55.3-52.625,4.071-8.642,8.729-15.066,13.976-19.894a66.576,66.576,0,0,0-12.057,19.158c-11.56,26.53-31.941,46.76-54.519,54.115a63.153,63.153,0,0,1-40.25-.217A64.081,64.081,0,0,0,950.06,377.158Zm59.989-53.7c-11.082,27.46-31.4,48.436-54.347,56.112a63.8,63.8,0,0,1-41.049-.29,64.606,64.606,0,0,0,38.4-.48c22.829-7.436,43.422-27.859,55.086-54.63,3.926-9.01,8.474-15.669,13.637-20.631l.126-.051C1017.436,308.473,1013.479,314.96,1010.049,323.459Zm28.476-31.525a44.671,44.671,0,0,0-6.133,2.942c-.371.184-.735.383-1.1.577q-3.965,1.979-7.79,3.974c20-10.971,42.628-21.689,70.887-27.421A277.73,277.73,0,0,0,1038.525,291.934Zm8.844-2.61c-.632.134-1.261.274-1.882.426a268.771,268.771,0,0,1,55.553-18.274A343.621,343.621,0,0,0,1047.369,289.324Zm5.487-.96c-.39.054-.777.112-1.162.171A339.119,339.119,0,0,1,1107.24,271,447.25,447.25,0,0,0,1052.856,288.364Zm3.758-.449a448.826,448.826,0,0,1,57.811-17.7c-21.674,5.661-40.443,11.588-57.081,17.628C1057.1,287.87,1056.856,287.891,1056.614,287.915Zm4.3-.356c17.765-6.327,37.93-12.52,61.41-18.4l.022-.006c-23.036,6.337-43.069,12.359-60.857,18.362C1061.293,287.53,1061.1,287.546,1060.912,287.559Zm4.365-.231-.325.013c18.081-6.015,38.451-12.065,61.9-18.453,25.164-6.854,37.252-22.185,34.035-43.168-2.482-16.2-14.279-34.023-31.556-47.678-18.364-14.514-40.577-22.392-60.894-21.614-42.019,1.607-60.912,15.324-87.369,45.464-2.065,2.354-4.075,4.682-6.052,6.972C950.179,237.632,930.556,260.352,872.5,248.6c-37.9-7.665-53.354,18.52-63.583,35.85-4.134,7-7.4,12.537-10.648,12.71l-.25.013-.128.216c-15.146,25.656-20.569,42.261-17.067,52.257,2.363,6.744,8.272,9.468,15.179,12.1a18.041,18.041,0,0,0,6.452,1.046c5.4,0,11.932-1.62,19.578-3.517a183.192,183.192,0,0,1,25.325-4.941c-9.948,1.267-18.977,3.972-26.726,6.3-10.359,3.114-18.538,5.575-24.672,3.721-7.531-2.274-14-4.712-16.881-11.535-4.178-9.89.384-27.451,13.946-53.682,3.261-.451,6.117-5.8,10.03-13.127,9.448-17.691,25.257-47.3,65.378-38.8,60.817,12.883,81.261-11.1,107.139-41.471q3.076-3.61,6.282-7.329c27.5-31.73,47.018-45.985,90-46.573,20.211-.282,42.4,8.186,60.9,23.217,17.526,14.243,29.472,32.569,31.954,49.022,3.147,20.859-8.78,36.359-33.581,43.646q-7.3,2.144-14.195,4.162C1097.7,277.511,1080.634,282.511,1065.277,287.328Zm3.526-.117h0c14.505-4.505,30.506-9.2,48.389-14.433q6.9-2.022,14.194-4.163c34.147-10.031,36.112-32.3,34.243-44.681-2.515-16.677-14.585-35.222-32.289-49.609-18.665-15.167-41.05-23.695-61.5-23.426-43.336.593-63,14.946-90.69,46.9-2.146,2.476-4.233,4.927-6.286,7.335-25.677,30.132-45.962,53.928-106.235,41.163-40.8-8.647-56.824,21.355-66.4,39.278-3.732,6.988-6.68,12.507-9.529,12.66l-.268.013-.123.238c-13.789,26.619-18.4,44.512-14.093,54.7,3.288,7.783,11.152,10.158,17.471,12.066a17.285,17.285,0,0,0,5.021.679c5.557,0,12.242-2.01,20.191-4.4s17.272-5.191,27.532-6.392c-10.722,1.5-20.368,4.9-28.627,7.816-9.647,3.406-17.974,6.35-24.22,4.89-8.373-1.953-15.6-4.166-19.2-11.484-5.041-10.24-1.413-28.613,11.087-56.159,2.9-.463,5.33-5.5,8.958-13,9.371-19.374,25.051-51.8,68.12-42.306,63.04,13.9,84.144-11.163,110.862-42.894,2.128-2.527,4.293-5.1,6.519-7.7,29.315-34.223,48.759-48.471,93.292-48,20.3.208,42.722,9.322,61.527,25.005,17.961,14.981,30.185,34.04,32.7,50.981,3.153,21.272-8.856,37.31-33.816,45.159-20.048,6.3-38,11.464-53.841,16.016Q1075.085,285.393,1068.8,287.211Zm6.513-.909,6.732-1.937c15.845-4.553,33.805-9.714,53.864-16.023,25.451-8,37.689-24.406,34.46-46.187-2.545-17.162-14.89-36.438-33.023-51.562-18.967-15.819-41.607-25.012-62.117-25.222-22.46-.226-39.071,3.372-53.772,11.681-14.241,8.051-26.386,20.471-40.239,36.645q-3.34,3.9-6.524,7.7c-26.515,31.489-47.457,56.361-109.946,42.583-43.792-9.659-59.671,23.19-69.163,42.812-3.343,6.911-5.984,12.37-8.455,12.5l-.283.015-.118.258c-12.713,27.953-16.373,46.663-11.186,57.2,4.09,8.31,13.186,10.433,19.826,11.982a16.622,16.622,0,0,0,3.782.406c5.877,0,12.976-2.506,20.961-5.324,8.534-3.012,18.559-6.537,29.7-7.925-11.516,1.7-21.8,5.842-30.572,9.39-9.467,3.829-17.642,7.137-24.029,6.033-8.868-1.531-17.191-3.553-21.57-11.382-5.932-10.6-3.225-29.8,8.279-58.691,2.554-.5,4.715-5.429,7.923-12.754,8.643-19.728,24.732-56.455,70.824-45.922a153.3,153.3,0,0,0,34.015,4.293c40.081,0,58.463-22.066,80.562-48.6,2.207-2.651,4.453-5.347,6.763-8.072,30.607-36.118,50.78-50.958,96.587-49.427,45.46,1.532,90.566,45.126,95.6,79.741,3.158,21.691-8.937,38.264-34.057,46.666C1115.445,275.444,1094.184,281.241,1075.316,286.3Zm6.777-.856c17.231-4.658,36.43-10.046,58.347-17.376,25.6-8.562,37.918-25.5,34.687-47.687-5.6-38.474-54.3-79.12-96.5-80.541-46.184-1.561-66.516,13.394-97.332,49.757-2.312,2.726-4.559,5.425-6.767,8.078-27.348,32.838-48.95,58.778-113.651,44-46.858-10.705-63.137,26.482-71.888,46.458-2.967,6.771-5.31,12.12-7.424,12.233l-.3.016-.111.278c-11.7,29.309-14.425,48.854-8.329,59.75,4.581,8.188,13.128,10.276,22.228,11.847a16.479,16.479,0,0,0,2.8.228c6.127,0,13.446-2.96,21.742-6.316,9.128-3.692,19.906-8.043,31.984-9.555-12.4,1.83-23.373,6.806-32.692,11.045-9.375,4.263-17.466,7.942-24.04,7.169-9.269-1.1-18.754-2.869-23.976-11.231-6.851-10.971-5.052-31.017,5.5-61.276,2.225-.511,4.03-5.067,6.935-12.4,8.483-21.407,24.279-61.256,73.483-49.65,13.6,3.206,25.356,4.662,35.712,4.661,41.041,0,59.912-22.886,82.579-50.383q3.43-4.161,7.008-8.45c15.505-18.479,28.093-31.622,42.916-40.038,15.552-8.83,33.12-12.164,56.967-10.815,20.5,1.161,43.4,11.566,62.816,28.546,18.843,16.479,31.621,37.024,34.18,54.957,2.233,15.644-1.907,36.7-34.31,48.163C1120.962,275.3,1100.473,280.843,1082.093,285.446Zm6.352-.644c16.812-4.309,35.391-9.528,56.524-17.006,25.747-9.111,38.15-26.575,34.924-49.177-5.613-39.331-55.005-81.877-97.869-84.305-24.035-1.363-41.764,2.011-57.483,10.936-14.944,8.485-27.6,21.691-43.169,40.25-2.4,2.855-4.724,5.68-7.013,8.456C946.178,228.141,923.92,255.143,857,239.363c-49.986-11.787-65.98,28.546-74.566,50.216-2.6,6.569-4.661,11.758-6.439,11.853l-.313.016-.1.3c-10.737,30.693-12.538,51.086-5.506,62.347,5.44,8.713,15.165,10.539,24.659,11.663a16.243,16.243,0,0,0,1.936.111c6.424,0,13.98-3.435,22.6-7.357,9.552-4.345,20.852-9.481,33.61-11.144-13.024,1.994-24.486,7.757-34.2,12.648-9.354,4.712-17.437,8.785-24.207,8.308-10-.7-20.284-2.127-26.406-11.034-7.8-11.344-6.9-32.252,2.746-63.911,1.922-.552,3.486-4.925,5.987-11.918,3.93-10.989,9.868-27.594,21.374-39.815,13.711-14.563,32.123-19.166,54.729-13.681,69.7,16.911,92.782-11.348,122-47.129,2.368-2.9,4.778-5.851,7.258-8.833,32.053-38.554,52.686-56.279,103.178-52.281,20.617,1.633,43.754,12.679,63.478,30.3,19.577,17.5,32.306,38.261,34.92,56.973,2.228,15.943-1.962,37.5-34.573,49.651A495.09,495.09,0,0,1,1088.445,284.8Zm6.859-.691a484.657,484.657,0,0,0,54.193-16.588c33.193-12.368,37.448-34.374,35.173-50.656-2.645-18.928-15.483-39.9-35.223-57.542-19.873-17.759-43.21-28.89-64.028-30.539-50.931-4.03-71.706,13.809-103.971,52.615-2.481,2.985-4.892,5.938-7.262,8.839-29.011,35.526-51.925,63.588-121.056,46.813-53.239-12.914-69.427,32.339-77.205,54.089-2.165,6.052-4.034,11.279-5.495,11.357l-.326.018-.1.312c-9.812,32.1-10.7,53.359-2.706,64.987,6.358,9.249,17.328,10.753,27.111,11.437.384.027.77.039,1.161.039,6.768,0,14.573-3.931,23.533-8.445,9.874-4.974,21.568-10.866,34.848-12.7-13.513,2.178-25.335,8.693-35.342,14.209-9.387,5.175-17.512,9.643-24.5,9.459-10.249-.267-21.776-1.345-28.85-10.8-8.766-11.717-8.766-33.5,0-66.584,1.55-.526,2.74-4.032,5.082-11.318,7.445-23.157,22.932-71.347,78.681-57.464,71.928,17.907,95.66-11.412,125.707-48.532,2.45-3.027,4.943-6.107,7.51-9.221,33.358-40.463,54.73-58.955,106.474-53.708,20.742,2.1,44.125,13.787,64.155,32.056s33.03,39.78,35.656,59.007c2.219,16.244-2.025,38.3-34.846,51.127A404.023,404.023,0,0,1,1095.3,284.111Zm4.868-.175a399.86,399.86,0,0,0,53.852-16.686c33.389-13.048,37.7-35.547,35.434-52.124-2.656-19.441-15.76-41.154-35.953-59.572-20.175-18.4-43.754-30.172-64.69-32.295-52.181-5.289-73.716,13.317-107.29,54.044-2.569,3.115-5.064,6.2-7.516,9.227-29.838,36.862-53.413,65.976-124.753,48.213-24.358-6.064-44.007-.938-58.4,15.235-11.938,13.415-17.631,31.128-21.4,42.849-1.842,5.73-3.431,10.678-4.6,10.74l-.339.018-.088.328c-8.921,33.536-8.895,55.669.078,67.664,7.324,9.788,19.107,10.9,29.576,11.173.147,0,.294.006.442.006,7.152,0,15.22-4.448,24.532-9.581,10.158-5.6,22.206-12.228,35.949-14.235-13.949,2.362-26.1,9.612-36.371,15.746-9.461,5.649-17.631,10.528-24.891,10.625-11.733.153-23.617-1.006-31.3-10.529-9.622-11.922-10.541-35.235-2.734-69.3,1.29-.543,2.243-3.69,4.223-10.585,6.588-22.936,22-76.653,81.215-61.559,74.147,18.9,98.535-11.474,129.409-49.932,2.532-3.154,5.109-6.365,7.764-9.61,34.68-42.4,56.827-61.662,109.772-55.137,20.877,2.574,44.512,14.9,64.846,33.8,20.491,19.056,33.754,41.31,36.387,61.057,2.207,16.545-2.1,39.1-35.131,52.592A343.655,343.655,0,0,1,1100.172,283.936Zm58.38-16.959c33.585-13.717,37.953-36.709,35.7-53.581-2.661-19.958-16.029-42.416-36.677-61.617-20.475-19.041-44.3-31.45-65.368-34.048-53.419-6.584-75.709,12.8-110.61,55.473-2.657,3.247-5.236,6.461-7.77,9.617-30.663,38.194-54.881,68.366-128.45,49.612-60.079-15.312-75.68,39.009-82.343,62.206-1.405,4.891-2.858,9.948-3.742,9.995l-.351.018-.08.344c-8.055,34.994-7.121,58.013,2.854,70.374,7.524,9.321,18.837,10.889,30.175,10.889.622,0,1.247,0,1.87-.013,7.511-.1,15.781-5.039,25.357-10.757,10.9-6.508,22.908-13.67,36.813-15.786-14.081,2.474-26.18,10.237-37.184,17.295-9.567,6.137-17.83,11.437-25.36,11.811-21.056,1.042-28.882-4.585-33.761-10.232-10.618-12.287-12.458-36.525-5.47-72.048,1.029-.545,1.764-3.236,3.411-9.711,3.924-15.418,12.088-47.5,35.935-61.584,12.981-7.666,29.051-9.079,47.765-4.207,16.249,4.232,30.169,6.141,42.329,6.14,44.993,0,65.827-26.144,90.781-57.467,2.616-3.283,5.279-6.626,8.022-10.006,18.7-23.036,32.69-38.191,48.837-47.488,17.642-10.158,37.451-12.959,64.232-9.077,20.714,3,45.22,16.292,65.553,35.55,20.953,19.845,34.48,42.852,37.114,63.121,3.139,24.158-9.11,42.845-35.424,54.043a301.462,301.462,0,0,1-56.867,17.781A341.006,341.006,0,0,0,1158.552,266.977Zm4.528-.274c33.783-14.376,38.215-37.857,35.986-55.023-2.662-20.479-16.293-43.69-37.4-63.68-20.469-19.386-45.164-32.768-66.062-35.8-27-3.913-47-1.078-64.833,9.192-16.273,9.369-30.323,24.588-49.1,47.71q-4.116,5.071-8.028,10.012c-31.487,39.522-56.358,70.741-132.142,51.005-18.968-4.94-35.276-3.491-48.476,4.3-24.183,14.281-32.411,46.619-36.365,62.16-1.108,4.353-2.253,8.853-2.945,9.113l-.354.02-.071.357c-7.109,35.966-5.215,60.563,5.626,73.11,4.62,5.347,11.779,10.683,29.573,10.683q2.344,0,4.942-.128c7.78-.387,16.14-5.749,25.819-11.958,11.294-7.244,23.754-15.231,38.285-17.385-14.69,2.527-27.229,11.1-38.614,18.89-9.7,6.638-18.079,12.37-25.9,13.017-12.459,1.03-26.505.657-36.217-9.907-11.631-12.65-14.392-37.824-8.208-74.828.8-.535,1.339-2.794,2.65-8.685,3.647-16.382,11.235-50.467,36.31-65.706,13.448-8.173,30.21-9.675,49.826-4.465,16.9,4.489,31.35,6.511,43.952,6.51,46,0,67.327-26.954,92.856-59.23,2.7-3.413,5.449-6.889,8.283-10.4,16.772-20.8,32.137-38.88,50.335-49.4,18.183-10.511,38.545-13.161,66.03-8.593,20.87,3.47,45.646,17.412,66.276,37.295,21.415,20.639,35.2,44.4,37.834,65.2,3.108,24.588-9.246,43.773-35.728,55.483a270.917,270.917,0,0,1-56.073,17.845A300.366,300.366,0,0,0,1163.08,266.7Zm4.527-.273c33.983-15.025,38.486-38.993,36.278-56.454-2.656-21-16.547-44.971-38.113-65.755-20.761-20.009-45.722-34.044-66.771-37.544-27.709-4.608-48.267-1.922-66.653,8.706-18.336,10.6-33.762,28.746-50.6,49.623-2.834,3.516-5.585,6.994-8.287,10.41-32.31,40.849-57.828,73.118-135.836,52.4-19.868-5.276-36.877-3.74-50.55,4.57-25.415,15.445-33.062,49.795-36.737,66.3-.874,3.927-1.7,7.639-2.233,8.089l-.322.017-.063.369c-6.289,37.445-3.463,62.972,8.4,75.875,7.823,8.507,18.3,10.592,28.57,10.592,2.84,0,5.666-.16,8.413-.387,8.064-.666,16.536-6.464,26.347-13.177,11.54-7.9,24.271-16.6,39.189-18.888-15.062,2.67-27.867,11.954-39.487,20.386-9.856,7.152-18.367,13.329-26.484,14.245-12.324,1.39-27.854,1.561-38.673-9.558-12.658-13.01-16.342-39.13-10.95-77.642.593-.519.973-2.392,1.946-7.484,3.058-16,10.219-53.466,36.6-69.966,13.916-8.7,31.384-10.3,51.917-4.749,17.552,4.747,32.526,6.882,45.567,6.881,47.016,0,68.834-27.764,94.937-60.991,2.763-3.517,5.621-7.154,8.544-10.8,36.408-45.45,59.91-70.618,119.664-59.423,21.039,3.943,46.091,18.537,67.015,39.04,21.878,21.437,35.929,45.964,38.549,67.29,3.072,25.016-9.391,44.695-36.043,56.909a247.814,247.814,0,0,1-55.428,17.966A270.722,270.722,0,0,0,1167.607,266.43Zm4.526-.273c27.059-12.4,39.709-32.412,36.581-57.872-2.645-21.533-16.8-46.261-38.822-67.844-21.051-20.627-46.284-35.315-67.5-39.291-28.407-5.324-49.522-2.795-68.461,8.2-18.682,10.848-34.651,29.767-52.1,51.556-2.926,3.652-5.784,7.291-8.549,10.81-33.131,42.174-59.3,75.484-139.524,53.786-20.794-5.625-38.511-3.991-52.658,4.859-26.726,16.715-33.941,54.463-37.021,70.581-.623,3.26-1.212,6.345-1.6,6.9l-.272.014-.053.382c-5.482,38.94-1.723,65.4,11.173,78.659,8.125,8.352,18.771,10.505,28.809,10.505a95.171,95.171,0,0,0,10.639-.669c8.362-.944,16.966-7.188,26.928-14.417,11.528-8.366,24.233-17.57,39.107-20.213-15.015,3.024-27.784,12.8-39.391,21.7-9.607,7.363-18.681,14.316-27.106,15.5-12.9,1.814-29.23,2.41-41.123-9.191-13.7-13.367-18.307-40.439-13.7-80.468.385-.447.634-1.862,1.308-6.1,2.457-15.445,8.983-56.471,36.774-74.375,14.394-9.275,32.582-10.981,54.06-5.073,18.181,5,33.666,7.247,47.133,7.247,47.921,0,70.2-28.462,96.85-62.505,2.916-3.726,5.931-7.579,9.022-11.446C1020.233,110,1044.477,83.8,1105.6,96.538c21.22,4.422,46.556,19.669,67.771,40.787,22.343,22.241,36.651,47.534,39.256,69.4,3.031,25.441-9.545,45.608-36.367,58.32a229.975,229.975,0,0,1-54.942,18.145A248.464,248.464,0,0,0,1172.133,266.157Zm4.526-.272c27.22-12.9,39.979-33.4,36.9-59.276-2.63-22.066-17.036-47.56-39.526-69.946-21.339-21.241-46.848-36.583-68.24-41.04-29.11-6.065-50.79-3.7-70.292,7.653-19.123,11.138-35.584,30.833-53.591,53.532-3.092,3.869-6.109,7.724-9.026,11.451-33.921,43.336-60.714,77.566-143,54.934-21.745-5.983-40.188-4.237-54.814,5.187-28.143,18.131-34.717,59.457-37.191,75.015a45.742,45.742,0,0,1-1.036,5.519l-.208.011-.045.392c-4.684,40.451.011,67.86,13.953,81.462,8.419,8.216,18.952,10.469,28.984,10.469a93.155,93.155,0,0,0,12.921-1.02c8.669-1.22,17.837-8.247,27.544-15.686,12.122-9.29,25.525-19.552,41.374-21.93-15.983,2.793-29.438,13.61-41.628,23.419-9.785,7.874-19.028,15.313-27.776,16.769-12.413,2.067-30.438,3.4-43.567-8.807-14.753-13.72-20.291-41.754-16.459-83.328.238-.409.375-1.509.746-4.477,1.839-14.7,7.436-59.421,36.8-78.95,14.878-9.9,33.812-11.731,56.279-5.455,18.831,5.261,34.839,7.621,48.745,7.62,48.979,0,71.767-29.3,99-64.339,2.979-3.833,6.06-7.8,9.217-11.775,38.953-49.323,64.023-76.535,126.259-62.281,21.417,4.9,47.04,20.807,68.543,42.536,22.809,23.047,37.372,49.11,39.957,71.507,2.984,25.865-9.706,46.516-36.7,59.72a215.677,215.677,0,0,1-54.631,18.373A230.886,230.886,0,0,0,1176.659,265.885Zm4.526-.274c27.383-13.394,40.253-34.373,37.219-60.667-2.608-22.6-17.268-48.865-40.221-72.058-21.623-21.85-47.417-37.846-69-42.789-62.788-14.381-88.015,12.993-127.2,62.612-3.159,3.981-6.242,7.946-9.222,11.781-17.76,22.847-33.1,42.578-54.823,53.986-23.824,12.508-53.035,13.272-91.932,2.406-22.74-6.351-41.933-4.476-57.048,5.577-29.717,19.766-35.354,64.811-37.206,79.613-.224,1.789-.733,4.323-.733,4.323-3.893,41.977,1.738,70.334,16.737,84.283,8.768,8.155,19.617,10.411,29.6,10.411a90.108,90.108,0,0,0,14.753-1.367c8.989-1.5,18.325-9.009,28.208-16.962,12.324-9.918,25.952-20.875,42.127-23.371-16.3,2.924-29.979,14.425-42.368,24.853-9.975,8.4-19.4,16.327-28.476,18.056-12.922,2.461-31.755,4.266-46-8.408-15.823-14.074-22.291-43.092-19.225-86.243a19.14,19.14,0,0,0,.285-2.518c4.431-51.441,22.355-73.955,36.611-83.784,15.374-10.6,35.094-12.577,58.6-5.873,19.438,5.477,35.946,7.934,50.268,7.933,50.165,0,73.454-30.146,101.287-66.179,3.026-3.918,6.156-7.97,9.362-12.038,40.326-51.275,66.223-79.518,129.558-63.71,21.626,5.4,47.545,21.953,69.333,44.287,23.274,23.859,38.09,50.7,40.649,73.631,2.933,26.286-9.876,47.417-37.042,61.108a204.184,204.184,0,0,1-54.362,18.623A217.066,217.066,0,0,0,1181.185,265.611Zm8.621-1.376a194.577,194.577,0,0,1-54.294,18.921,205.708,205.708,0,0,0,50.2-17.818c27.547-13.881,40.531-35.336,37.552-62.045-2.583-23.139-17.493-50.176-40.91-74.18-21.9-22.454-47.988-39.106-69.776-44.543-63.9-15.944-89.955,12.461-130.518,64.04-3.21,4.071-6.341,8.124-9.368,12.044C954.5,184.2,938.793,204.54,916.52,216.26c-24.414,12.845-54.406,13.581-94.389,2.312-23.794-6.781-43.776-4.761-59.392,6-26.128,18.015-34.547,55.88-37.01,84.474-.073.849-.248,2.011-.248,2.011l-.03.412c-3.108,43.516,3.463,72.827,19.527,87.117C754.065,406.671,764.931,409,775.007,409a90.1,90.1,0,0,0,16.772-1.781c9.32-1.775,18.832-9.782,28.9-18.26,11.924-10.036,25.049-21.081,40.515-24.366-15.48,3.677-28.588,15.174-40.746,25.843-10.172,8.928-19.781,17.361-29.2,19.362-21.047,4.47-36.893,1.857-48.437-8-16.907-14.429-24.308-44.441-22-89.2v-.021c0-.622.785-62.49,35.189-88.235,10.006-7.488,21.9-11.239,35.551-11.239A96.108,96.108,0,0,1,818,217.16c20.118,5.78,37.175,8.369,51.952,8.368,51.12,0,74.9-30.987,103.314-68.007,3.106-4.048,6.318-8.233,9.609-12.433,20.626-26.332,37.992-47.412,57.979-59.226,20.981-12.4,44.074-14.23,74.877-5.915,21.849,5.9,48.068,23.109,70.137,46.044,23.74,24.672,38.806,52.286,41.335,75.763C1230.077,228.458,1217.146,250.064,1189.806,264.235Z" fill="#fff"/>
    </g>
    <g id="Group_15" data-name="Group 15" transform="translate(354 -307.904)">
      <path id="Path_569" data-name="Path 569" d="M817.72,332.259a65.309,65.309,0,1,1,65.31-65.309A65.309,65.309,0,0,1,817.72,332.259Zm0-139.274a73.965,73.965,0,1,0,73.965,73.965A73.964,73.964,0,0,0,817.72,192.985Z" fill="#fff"/>
      <path id="Path_570" data-name="Path 570" d="M817.72,317.913a50.963,50.963,0,1,1,50.963-50.963A50.962,50.962,0,0,1,817.72,317.913Zm0-110.24A59.277,59.277,0,1,0,877,266.95,59.277,59.277,0,0,0,817.72,207.673Z" fill="#fff"/>
      <path id="Path_571" data-name="Path 571" d="M817.72,303.566a36.616,36.616,0,1,1,36.617-36.616A36.616,36.616,0,0,1,817.72,303.566Zm0-81.205a44.589,44.589,0,1,0,44.589,44.589A44.589,44.589,0,0,0,817.72,222.361Z" fill="#fff"/>
      <path id="Path_572" data-name="Path 572" d="M817.72,289.22a22.27,22.27,0,1,1,22.27-22.27A22.27,22.27,0,0,1,817.72,289.22Zm0-52.171a29.9,29.9,0,1,0,29.9,29.9A29.9,29.9,0,0,0,817.72,237.049Z" fill="#fff"/>
      <path id="Path_573" data-name="Path 573" d="M817.72,274.012a7.062,7.062,0,1,1,7.063-7.062A7.062,7.062,0,0,1,817.72,274.012Zm0-20.978a13.915,13.915,0,1,0,13.916,13.916A13.916,13.916,0,0,0,817.72,253.034Z" fill="#fff"/>
    </g>
  </g>
</svg>
